<?xml version="1.0" encoding="utf-8" standalone="no"?>
<!DOCTYPE svg PUBLIC "-//W3C//DTD SVG 1.1//EN"
  "http://www.w3.org/Graphics/SVG/1.1/DTD/svg11.dtd">
<svg xmlns:xlink="http://www.w3.org/1999/xlink" width="1152pt" height="504pt" viewBox="0 0 1152 504" xmlns="http://www.w3.org/2000/svg" version="1.1">
 <metadata>
  <rdf:RDF xmlns:dc="http://purl.org/dc/elements/1.1/" xmlns:cc="http://creativecommons.org/ns#" xmlns:rdf="http://www.w3.org/1999/02/22-rdf-syntax-ns#">
   <cc:Work>
    <dc:type rdf:resource="http://purl.org/dc/dcmitype/StillImage"/>
    <dc:date>2022-08-11T19:05:03.554013</dc:date>
    <dc:format>image/svg+xml</dc:format>
    <dc:creator>
     <cc:Agent>
      <dc:title>Matplotlib v3.5.2, https://matplotlib.org/</dc:title>
     </cc:Agent>
    </dc:creator>
   </cc:Work>
  </rdf:RDF>
 </metadata>
 <defs>
  <style type="text/css">*{stroke-linejoin: round; stroke-linecap: butt}</style>
 </defs>
 <g id="figure_1">
  <g id="patch_1">
   <path d="M 0 504 
L 1152 504 
L 1152 0 
L 0 0 
L 0 504 
z
" style="fill: none"/>
  </g>
  <g id="axes_1">
   <g id="patch_2">
    <path d="M 46.336959 181.222281 
L 538.860937 181.222281 
L 538.860937 3.00024 
L 46.336959 3.00024 
L 46.336959 181.222281 
z
" style="fill: none"/>
   </g>
   <g id="matplotlib.axis_1">
    <g id="xtick_1">
     <g id="line2d_1">
      <defs>
       <path id="m498bc1bd98" d="M 0 0 
L 0 3.5 
" style="stroke: #000000; stroke-width: 0.8"/>
      </defs>
      <g>
       <use xlink:href="#m498bc1bd98" x="119.970178" y="181.222281" style="stroke: #000000; stroke-width: 0.8"/>
      </g>
     </g>
     <g id="text_1">
      <!-- 0.80 -->
      <g transform="translate(105.376818 199.561343)scale(0.15 -0.15)">
       <defs>
        <path id="Avenir-Book-30" d="M 1779 4186 
Q 1408 4186 1193 3987 
Q 979 3789 870 3494 
Q 762 3200 733 2867 
Q 704 2534 704 2266 
Q 704 1997 733 1664 
Q 762 1331 870 1036 
Q 979 742 1193 544 
Q 1408 346 1779 346 
Q 2150 346 2364 544 
Q 2579 742 2688 1036 
Q 2797 1331 2825 1664 
Q 2854 1997 2854 2266 
Q 2854 2534 2825 2867 
Q 2797 3200 2688 3494 
Q 2579 3789 2364 3987 
Q 2150 4186 1779 4186 
z
M 1779 4608 
Q 2266 4608 2566 4384 
Q 2867 4160 3033 3814 
Q 3200 3469 3257 3056 
Q 3315 2643 3315 2266 
Q 3315 1888 3257 1475 
Q 3200 1062 3033 716 
Q 2867 371 2566 147 
Q 2266 -77 1779 -77 
Q 1293 -77 992 147 
Q 691 371 524 716 
Q 358 1062 300 1475 
Q 243 1888 243 2266 
Q 243 2643 300 3056 
Q 358 3469 524 3814 
Q 691 4160 992 4384 
Q 1293 4608 1779 4608 
z
" transform="scale(0.015625)"/>
        <path id="Avenir-Book-2e" d="M 1235 307 
Q 1235 173 1139 67 
Q 1043 -38 890 -38 
Q 736 -38 640 67 
Q 544 173 544 307 
Q 544 442 640 547 
Q 736 653 890 653 
Q 1043 653 1139 547 
Q 1235 442 1235 307 
z
" transform="scale(0.015625)"/>
        <path id="Avenir-Book-38" d="M 2752 1274 
Q 2752 1472 2681 1641 
Q 2611 1811 2486 1936 
Q 2362 2061 2179 2131 
Q 1997 2202 1779 2202 
Q 1555 2202 1376 2131 
Q 1197 2061 1072 1936 
Q 947 1811 876 1641 
Q 806 1472 806 1274 
Q 806 1075 876 905 
Q 947 736 1072 611 
Q 1197 486 1376 416 
Q 1555 346 1779 346 
Q 1997 346 2179 416 
Q 2362 486 2486 611 
Q 2611 736 2681 905 
Q 2752 1075 2752 1274 
z
M 2586 3386 
Q 2586 3558 2525 3705 
Q 2464 3853 2355 3958 
Q 2246 4064 2099 4125 
Q 1952 4186 1779 4186 
Q 1606 4186 1459 4125 
Q 1312 4064 1203 3958 
Q 1094 3853 1033 3705 
Q 973 3558 973 3386 
Q 973 3213 1033 3065 
Q 1094 2918 1203 2812 
Q 1312 2707 1459 2646 
Q 1606 2586 1779 2586 
Q 1952 2586 2099 2646 
Q 2246 2707 2355 2812 
Q 2464 2918 2525 3065 
Q 2586 3213 2586 3386 
z
M 1190 2413 
Q 1043 2464 918 2563 
Q 794 2662 704 2796 
Q 614 2931 563 3091 
Q 512 3251 512 3424 
Q 512 3693 614 3913 
Q 717 4134 889 4288 
Q 1062 4442 1292 4525 
Q 1523 4608 1779 4608 
Q 2035 4608 2265 4525 
Q 2496 4442 2669 4288 
Q 2842 4134 2944 3913 
Q 3046 3693 3046 3424 
Q 3046 3251 2995 3091 
Q 2944 2931 2854 2796 
Q 2765 2662 2640 2563 
Q 2515 2464 2368 2413 
L 2368 2400 
Q 2752 2298 2982 1978 
Q 3213 1658 3213 1210 
Q 3213 915 3094 678 
Q 2976 442 2781 272 
Q 2586 102 2326 12 
Q 2067 -77 1779 -77 
Q 1491 -77 1232 12 
Q 973 102 777 272 
Q 582 442 464 678 
Q 346 915 346 1210 
Q 346 1658 576 1978 
Q 806 2298 1190 2400 
L 1190 2413 
z
" transform="scale(0.015625)"/>
       </defs>
       <use xlink:href="#Avenir-Book-30"/>
       <use xlink:href="#Avenir-Book-2e" x="55.599991"/>
       <use xlink:href="#Avenir-Book-38" x="83.399979"/>
       <use xlink:href="#Avenir-Book-30" x="138.999969"/>
      </g>
     </g>
    </g>
    <g id="xtick_2">
     <g id="line2d_2">
      <g>
       <use xlink:href="#m498bc1bd98" x="212.011701" y="181.222281" style="stroke: #000000; stroke-width: 0.8"/>
      </g>
     </g>
     <g id="text_2">
      <!-- 0.85 -->
      <g transform="translate(197.418342 199.561343)scale(0.15 -0.15)">
       <defs>
        <path id="Avenir-Book-35" d="M 2976 4109 
L 1120 4109 
L 1094 2746 
Q 1242 2803 1395 2828 
Q 1549 2854 1702 2854 
Q 2022 2854 2284 2745 
Q 2547 2637 2736 2441 
Q 2925 2246 3030 1980 
Q 3136 1715 3136 1402 
Q 3136 1075 3021 803 
Q 2906 531 2701 336 
Q 2496 141 2217 32 
Q 1939 -77 1613 -77 
Q 1184 -77 838 128 
Q 493 333 307 730 
L 762 928 
Q 890 659 1120 502 
Q 1350 346 1651 346 
Q 1869 346 2054 426 
Q 2240 506 2377 640 
Q 2515 774 2595 960 
Q 2675 1146 2675 1357 
Q 2675 1594 2592 1792 
Q 2509 1990 2361 2134 
Q 2214 2278 2009 2355 
Q 1805 2432 1562 2432 
Q 1318 2432 1078 2365 
Q 838 2298 621 2182 
L 666 4531 
L 2976 4531 
L 2976 4109 
z
" transform="scale(0.015625)"/>
       </defs>
       <use xlink:href="#Avenir-Book-30"/>
       <use xlink:href="#Avenir-Book-2e" x="55.599991"/>
       <use xlink:href="#Avenir-Book-38" x="83.399979"/>
       <use xlink:href="#Avenir-Book-35" x="138.999969"/>
      </g>
     </g>
    </g>
    <g id="xtick_3">
     <g id="line2d_3">
      <g>
       <use xlink:href="#m498bc1bd98" x="304.053225" y="181.222281" style="stroke: #000000; stroke-width: 0.8"/>
      </g>
     </g>
     <g id="text_3">
      <!-- 0.90 -->
      <g transform="translate(289.459865 199.561343)scale(0.15 -0.15)">
       <defs>
        <path id="Avenir-Book-39" d="M 2790 3206 
Q 2790 3424 2716 3603 
Q 2643 3782 2508 3910 
Q 2374 4038 2188 4112 
Q 2003 4186 1779 4186 
Q 1555 4186 1369 4112 
Q 1184 4038 1049 3910 
Q 915 3782 841 3603 
Q 768 3424 768 3206 
Q 768 2989 841 2809 
Q 915 2630 1049 2499 
Q 1184 2368 1369 2297 
Q 1555 2227 1779 2227 
Q 2003 2227 2188 2297 
Q 2374 2368 2508 2499 
Q 2643 2630 2716 2809 
Q 2790 2989 2790 3206 
z
M 2330 1946 
L 2317 1958 
Q 2208 1882 2025 1843 
Q 1843 1805 1690 1805 
Q 1395 1805 1142 1910 
Q 890 2016 704 2201 
Q 518 2387 412 2643 
Q 307 2899 307 3206 
Q 307 3520 416 3776 
Q 525 4032 723 4217 
Q 922 4403 1190 4505 
Q 1459 4608 1779 4608 
Q 2099 4608 2368 4505 
Q 2637 4403 2835 4217 
Q 3034 4032 3142 3776 
Q 3251 3520 3251 3206 
Q 3251 2829 3139 2547 
Q 3027 2266 2861 1990 
L 1638 0 
L 1094 0 
L 2330 1946 
z
" transform="scale(0.015625)"/>
       </defs>
       <use xlink:href="#Avenir-Book-30"/>
       <use xlink:href="#Avenir-Book-2e" x="55.599991"/>
       <use xlink:href="#Avenir-Book-39" x="83.399979"/>
       <use xlink:href="#Avenir-Book-30" x="138.999969"/>
      </g>
     </g>
    </g>
    <g id="xtick_4">
     <g id="line2d_4">
      <g>
       <use xlink:href="#m498bc1bd98" x="396.094748" y="181.222281" style="stroke: #000000; stroke-width: 0.8"/>
      </g>
     </g>
     <g id="text_4">
      <!-- 0.95 -->
      <g transform="translate(381.501389 199.561343)scale(0.15 -0.15)">
       <use xlink:href="#Avenir-Book-30"/>
       <use xlink:href="#Avenir-Book-2e" x="55.599991"/>
       <use xlink:href="#Avenir-Book-39" x="83.399979"/>
       <use xlink:href="#Avenir-Book-35" x="138.999969"/>
      </g>
     </g>
    </g>
    <g id="xtick_5">
     <g id="line2d_5">
      <g>
       <use xlink:href="#m498bc1bd98" x="488.136272" y="181.222281" style="stroke: #000000; stroke-width: 0.8"/>
      </g>
     </g>
     <g id="text_5">
      <!-- 1.00 -->
      <g transform="translate(473.542912 199.561343)scale(0.15 -0.15)">
       <defs>
        <path id="Avenir-Book-31" d="M 2227 0 
L 1766 0 
L 1766 3955 
L 954 3238 
L 666 3584 
L 1818 4531 
L 2227 4531 
L 2227 0 
z
" transform="scale(0.015625)"/>
       </defs>
       <use xlink:href="#Avenir-Book-31"/>
       <use xlink:href="#Avenir-Book-2e" x="55.599991"/>
       <use xlink:href="#Avenir-Book-30" x="83.399979"/>
       <use xlink:href="#Avenir-Book-30" x="138.999969"/>
      </g>
     </g>
    </g>
    <g id="text_6">
     <!-- KF19 score -->
     <g transform="translate(255.495042 219.219937)scale(0.15 -0.15)">
      <defs>
       <path id="Avenir-Book-4b" d="M 1075 2566 
L 1082 2566 
L 1139 2566 
L 3270 4531 
L 3930 4531 
L 1645 2477 
L 4058 0 
L 3379 0 
L 1152 2336 
L 1082 2336 
L 1075 2336 
L 1075 0 
L 614 0 
L 614 4531 
L 1075 4531 
L 1075 2566 
z
" transform="scale(0.015625)"/>
       <path id="Avenir-Book-46" d="M 1075 0 
L 614 0 
L 614 4531 
L 3347 4531 
L 3347 4109 
L 1075 4109 
L 1075 2566 
L 3187 2566 
L 3187 2144 
L 1075 2144 
L 1075 0 
z
" transform="scale(0.015625)"/>
       <path id="Avenir-Book-20" transform="scale(0.015625)"/>
       <path id="Avenir-Book-73" d="M 2048 2285 
Q 1952 2470 1792 2579 
Q 1632 2688 1402 2688 
Q 1293 2688 1181 2662 
Q 1069 2637 979 2582 
Q 890 2528 835 2445 
Q 781 2362 781 2240 
Q 781 2029 928 1933 
Q 1075 1837 1370 1766 
L 1798 1664 
Q 2112 1594 2320 1379 
Q 2528 1165 2528 845 
Q 2528 602 2429 426 
Q 2330 250 2166 138 
Q 2003 26 1792 -25 
Q 1581 -77 1363 -77 
Q 1018 -77 720 54 
Q 422 186 211 506 
L 576 755 
Q 704 550 899 428 
Q 1094 307 1363 307 
Q 1491 307 1619 336 
Q 1747 365 1846 425 
Q 1946 486 2006 582 
Q 2067 678 2067 806 
Q 2067 1030 1900 1129 
Q 1734 1229 1498 1286 
L 1088 1382 
Q 1011 1402 880 1446 
Q 749 1491 624 1580 
Q 499 1670 409 1814 
Q 320 1958 320 2170 
Q 320 2400 413 2573 
Q 506 2746 662 2854 
Q 819 2963 1017 3017 
Q 1216 3072 1427 3072 
Q 1741 3072 2009 2950 
Q 2278 2829 2426 2534 
L 2048 2285 
z
" transform="scale(0.015625)"/>
       <path id="Avenir-Book-63" d="M 2643 2291 
Q 2534 2458 2339 2573 
Q 2144 2688 1894 2688 
Q 1632 2694 1424 2604 
Q 1216 2515 1069 2355 
Q 922 2195 845 1974 
Q 768 1754 768 1498 
Q 768 1242 845 1021 
Q 922 800 1069 640 
Q 1216 480 1424 390 
Q 1632 301 1894 307 
Q 2144 307 2339 422 
Q 2534 538 2643 704 
L 2989 442 
Q 2765 179 2483 54 
Q 2202 -70 1894 -77 
Q 1530 -83 1235 35 
Q 941 154 733 365 
Q 525 576 416 867 
Q 307 1158 307 1498 
Q 307 1837 416 2128 
Q 525 2419 733 2630 
Q 941 2842 1235 2960 
Q 1530 3078 1894 3072 
Q 2202 3066 2483 2941 
Q 2765 2816 2989 2554 
L 2643 2291 
z
" transform="scale(0.015625)"/>
       <path id="Avenir-Book-6f" d="M 3027 1498 
Q 3027 1747 2947 1964 
Q 2867 2182 2720 2342 
Q 2573 2502 2365 2595 
Q 2157 2688 1894 2688 
Q 1632 2688 1424 2595 
Q 1216 2502 1072 2342 
Q 928 2182 848 1964 
Q 768 1747 768 1498 
Q 768 1248 848 1030 
Q 928 813 1072 653 
Q 1216 493 1424 400 
Q 1632 307 1894 307 
Q 2157 307 2365 400 
Q 2573 493 2720 653 
Q 2867 813 2947 1030 
Q 3027 1248 3027 1498 
z
M 3488 1498 
Q 3488 1158 3369 870 
Q 3251 582 3040 371 
Q 2829 160 2537 41 
Q 2246 -77 1894 -77 
Q 1549 -77 1257 41 
Q 966 160 755 371 
Q 544 582 425 870 
Q 307 1158 307 1498 
Q 307 1837 425 2125 
Q 544 2413 755 2624 
Q 966 2835 1257 2953 
Q 1549 3072 1894 3072 
Q 2246 3072 2537 2953 
Q 2829 2835 3040 2624 
Q 3251 2413 3369 2125 
Q 3488 1837 3488 1498 
z
" transform="scale(0.015625)"/>
       <path id="Avenir-Book-72" d="M 506 2061 
Q 506 2259 496 2464 
Q 486 2669 480 2995 
L 896 2995 
L 896 2438 
L 909 2438 
Q 954 2560 1037 2672 
Q 1120 2784 1238 2873 
Q 1357 2963 1513 3017 
Q 1670 3072 1869 3072 
Q 2048 3072 2182 3034 
L 2099 2618 
Q 2016 2650 1856 2650 
Q 1613 2650 1440 2557 
Q 1267 2464 1152 2320 
Q 1037 2176 982 2009 
Q 928 1843 928 1690 
L 928 0 
L 506 0 
L 506 2061 
z
" transform="scale(0.015625)"/>
       <path id="Avenir-Book-65" d="M 2790 1728 
Q 2790 2157 2534 2422 
Q 2278 2688 1818 2688 
Q 1613 2688 1421 2608 
Q 1229 2528 1085 2393 
Q 941 2259 854 2086 
Q 768 1914 768 1728 
L 2790 1728 
z
M 755 1382 
Q 774 1158 864 960 
Q 954 762 1101 618 
Q 1248 474 1440 390 
Q 1632 307 1856 307 
Q 2195 307 2441 464 
Q 2688 621 2816 826 
L 3142 557 
Q 2874 218 2550 70 
Q 2227 -77 1856 -77 
Q 1523 -77 1238 41 
Q 954 160 749 371 
Q 544 582 425 870 
Q 307 1158 307 1498 
Q 307 1837 422 2125 
Q 538 2413 742 2624 
Q 947 2835 1222 2953 
Q 1498 3072 1818 3072 
Q 2157 3072 2425 2950 
Q 2694 2829 2876 2627 
Q 3059 2426 3155 2154 
Q 3251 1882 3251 1574 
L 3251 1382 
L 755 1382 
z
" transform="scale(0.015625)"/>
      </defs>
      <use xlink:href="#Avenir-Book-4b"/>
      <use xlink:href="#Avenir-Book-46" x="62.999985"/>
      <use xlink:href="#Avenir-Book-31" x="118.599976"/>
      <use xlink:href="#Avenir-Book-39" x="174.199966"/>
      <use xlink:href="#Avenir-Book-20" x="229.799957"/>
      <use xlink:href="#Avenir-Book-73" x="257.599945"/>
      <use xlink:href="#Avenir-Book-63" x="300.199936"/>
      <use xlink:href="#Avenir-Book-6f" x="348.399933"/>
      <use xlink:href="#Avenir-Book-72" x="407.699921"/>
      <use xlink:href="#Avenir-Book-65" x="439.149918"/>
     </g>
    </g>
   </g>
   <g id="matplotlib.axis_2">
    <g id="ytick_1">
     <g id="line2d_6">
      <defs>
       <path id="m9c17b4dc68" d="M 0 0 
L -3.5 0 
" style="stroke: #000000; stroke-width: 0.8"/>
      </defs>
      <g>
       <use xlink:href="#m9c17b4dc68" x="46.336959" y="181.222281" style="stroke: #000000; stroke-width: 0.8"/>
      </g>
     </g>
     <g id="text_7">
      <!-- 0 -->
      <g transform="translate(30.997896 186.891812)scale(0.15 -0.15)">
       <use xlink:href="#Avenir-Book-30"/>
      </g>
     </g>
    </g>
    <g id="ytick_2">
     <g id="line2d_7">
      <g>
       <use xlink:href="#m9c17b4dc68" x="46.336959" y="126.468729" style="stroke: #000000; stroke-width: 0.8"/>
      </g>
     </g>
     <g id="text_8">
      <!-- 5 -->
      <g transform="translate(30.997896 132.13826)scale(0.15 -0.15)">
       <use xlink:href="#Avenir-Book-35"/>
      </g>
     </g>
    </g>
    <g id="ytick_3">
     <g id="line2d_8">
      <g>
       <use xlink:href="#m9c17b4dc68" x="46.336959" y="71.715177" style="stroke: #000000; stroke-width: 0.8"/>
      </g>
     </g>
     <g id="text_9">
      <!-- 10 -->
      <g transform="translate(22.658834 77.384708)scale(0.15 -0.15)">
       <use xlink:href="#Avenir-Book-31"/>
       <use xlink:href="#Avenir-Book-30" x="55.599991"/>
      </g>
     </g>
    </g>
    <g id="ytick_4">
     <g id="line2d_9">
      <g>
       <use xlink:href="#m9c17b4dc68" x="46.336959" y="16.961625" style="stroke: #000000; stroke-width: 0.8"/>
      </g>
     </g>
     <g id="text_10">
      <!-- 15 -->
      <g transform="translate(22.658834 22.631156)scale(0.15 -0.15)">
       <use xlink:href="#Avenir-Book-31"/>
       <use xlink:href="#Avenir-Book-35" x="55.599991"/>
      </g>
     </g>
    </g>
    <g id="text_11">
     <!-- density -->
     <g transform="translate(14.339303 116.132354)rotate(-90)scale(0.15 -0.15)">
      <defs>
       <path id="Avenir-Book-64" d="M 717 1498 
Q 717 1248 797 1030 
Q 877 813 1024 653 
Q 1171 493 1379 400 
Q 1587 307 1850 307 
Q 2106 307 2326 400 
Q 2547 493 2707 653 
Q 2867 813 2956 1030 
Q 3046 1248 3046 1498 
Q 3046 1747 2956 1964 
Q 2867 2182 2707 2342 
Q 2547 2502 2326 2595 
Q 2106 2688 1850 2688 
Q 1587 2688 1379 2595 
Q 1171 2502 1024 2342 
Q 877 2182 797 1964 
Q 717 1747 717 1498 
z
M 3450 0 
L 3027 0 
L 3027 499 
L 3014 499 
Q 2912 346 2771 237 
Q 2630 128 2476 57 
Q 2323 -13 2160 -45 
Q 1997 -77 1850 -77 
Q 1498 -77 1206 41 
Q 915 160 704 371 
Q 493 582 374 870 
Q 256 1158 256 1498 
Q 256 1837 374 2125 
Q 493 2413 704 2624 
Q 915 2835 1206 2953 
Q 1498 3072 1850 3072 
Q 1997 3072 2160 3040 
Q 2323 3008 2476 2937 
Q 2630 2867 2771 2758 
Q 2912 2650 3014 2496 
L 3027 2496 
L 3027 4838 
L 3450 4838 
L 3450 0 
z
" transform="scale(0.015625)"/>
       <path id="Avenir-Book-6e" d="M 864 2995 
Q 877 2874 880 2755 
Q 883 2637 883 2515 
L 896 2515 
Q 966 2637 1075 2739 
Q 1184 2842 1318 2915 
Q 1453 2989 1603 3030 
Q 1754 3072 1901 3072 
Q 2477 3072 2752 2768 
Q 3027 2464 3027 1901 
L 3027 0 
L 2605 0 
L 2605 1658 
Q 2605 2157 2432 2422 
Q 2259 2688 1792 2688 
Q 1760 2688 1613 2662 
Q 1466 2637 1302 2521 
Q 1139 2406 1011 2176 
Q 883 1946 883 1536 
L 883 0 
L 461 0 
L 461 2336 
Q 461 2458 451 2643 
Q 442 2829 429 2995 
L 864 2995 
z
" transform="scale(0.015625)"/>
       <path id="Avenir-Book-69" d="M 1075 4147 
Q 1075 4013 979 3926 
Q 883 3840 768 3840 
Q 653 3840 557 3926 
Q 461 4013 461 4147 
Q 461 4282 557 4368 
Q 653 4454 768 4454 
Q 883 4454 979 4368 
Q 1075 4282 1075 4147 
z
M 979 0 
L 557 0 
L 557 2995 
L 979 2995 
L 979 0 
z
" transform="scale(0.015625)"/>
       <path id="Avenir-Book-74" d="M 2010 2611 
L 1146 2611 
L 1146 845 
Q 1146 678 1178 572 
Q 1210 467 1267 409 
Q 1325 352 1405 329 
Q 1485 307 1581 307 
Q 1690 307 1805 339 
Q 1920 371 2016 422 
L 2035 32 
Q 1798 -77 1466 -77 
Q 1344 -77 1213 -45 
Q 1082 -13 973 76 
Q 864 166 793 320 
Q 723 474 723 723 
L 723 2611 
L 90 2611 
L 90 2995 
L 723 2995 
L 723 3840 
L 1146 3840 
L 1146 2995 
L 2010 2995 
L 2010 2611 
z
" transform="scale(0.015625)"/>
       <path id="Avenir-Book-79" d="M 1574 518 
L 2490 2995 
L 3002 2995 
L 1504 -781 
Q 1370 -1126 1162 -1331 
Q 954 -1536 563 -1536 
Q 467 -1536 368 -1529 
Q 269 -1523 173 -1491 
L 218 -1082 
Q 352 -1152 538 -1152 
Q 762 -1152 890 -1011 
Q 1018 -870 1114 -614 
L 1331 -38 
L 102 2995 
L 634 2995 
L 1574 518 
z
" transform="scale(0.015625)"/>
      </defs>
      <use xlink:href="#Avenir-Book-64"/>
      <use xlink:href="#Avenir-Book-65" x="61.099991"/>
      <use xlink:href="#Avenir-Book-6e" x="116.699982"/>
      <use xlink:href="#Avenir-Book-73" x="172.299973"/>
      <use xlink:href="#Avenir-Book-69" x="214.899963"/>
      <use xlink:href="#Avenir-Book-74" x="238.899948"/>
      <use xlink:href="#Avenir-Book-79" x="272.099945"/>
     </g>
    </g>
   </g>
   <g id="line2d_10">
    <path d="M 87.645031 180.42993 
L 89.773736 179.804107 
L 91.902441 178.777138 
L 94.031145 177.15998 
L 96.15985 174.716694 
L 98.288555 171.175463 
L 100.41726 166.252626 
L 102.545964 159.690129 
L 104.674669 151.303026 
L 106.803374 141.029505 
L 108.932078 128.972555 
L 111.060783 115.42155 
L 119.575602 57.292856 
L 121.704306 44.964797 
L 123.833011 34.530981 
L 125.961716 26.198897 
L 128.090421 19.976531 
L 130.219125 15.701552 
L 132.34783 13.091608 
L 134.476535 11.803163 
L 136.605239 11.486947 
L 138.733944 11.831393 
L 140.862649 12.589789 
L 142.991353 13.59104 
L 147.248763 15.989503 
L 149.377468 17.354878 
L 151.506172 18.864156 
L 153.634877 20.557273 
L 155.763582 22.469624 
L 157.892286 24.622846 
L 160.020991 27.019766 
L 162.149696 29.643087 
L 166.407105 35.411694 
L 174.921924 47.428094 
L 179.179333 52.820973 
L 183.436743 57.541916 
L 187.694152 61.726193 
L 194.080266 67.76839 
L 198.337675 72.17459 
L 202.595085 77.083004 
L 206.852494 82.400555 
L 221.753427 101.778464 
L 230.268246 112.82204 
L 234.525655 117.833658 
L 236.65436 120.059326 
L 238.783065 122.054449 
L 240.911769 123.806901 
L 243.040474 125.325178 
L 245.169179 126.638437 
L 249.426588 128.850018 
L 253.683997 130.922974 
L 257.941407 133.304009 
L 262.198816 136.206035 
L 266.456226 139.528337 
L 270.713635 142.927045 
L 274.971044 145.991467 
L 277.099749 147.300139 
L 279.228454 148.435857 
L 281.357159 149.401638 
L 283.485863 150.21599 
L 287.743273 151.519944 
L 296.258091 153.837719 
L 302.644205 155.893134 
L 311.159024 158.645113 
L 317.545138 160.377556 
L 326.059957 162.368982 
L 355.861823 169.120634 
L 368.634051 172.167687 
L 375.020165 173.433603 
L 381.406279 174.389775 
L 387.792393 175.089217 
L 396.307212 175.809945 
L 413.336849 177.087165 
L 421.851668 178.160309 
L 430.366487 179.187968 
L 436.752601 179.717877 
L 445.26742 180.145203 
L 458.039648 180.466408 
L 489.970218 181.149089 
L 511.257265 181.221097 
L 511.257265 181.221097 
" clip-path="url(#p35d3cc90b3)" style="fill: none; stroke: #1f77b4; stroke-width: 1.5; stroke-linecap: square"/>
   </g>
   <g id="line2d_11">
    <path d="M 81.805886 180.625492 
L 83.993275 180.225994 
L 86.180665 179.605064 
L 88.368054 178.669231 
L 90.555444 177.301632 
L 92.742833 175.363896 
L 94.930223 172.70211 
L 97.117613 169.157593 
L 99.305002 164.582474 
L 101.492392 158.859027 
L 103.679781 151.920595 
L 105.867171 143.770934 
L 108.05456 134.498305 
L 110.24195 124.280854 
L 114.616729 102.127258 
L 118.991508 80.035397 
L 121.178898 69.911169 
L 123.366288 60.793933 
L 125.553677 52.876869 
L 127.741067 46.257021 
L 129.928456 40.937726 
L 132.115846 36.842649 
L 134.303235 33.838051 
L 136.490625 31.758881 
L 138.678015 30.434111 
L 140.865404 29.707535 
L 143.052794 29.451589 
L 145.240183 29.573373 
L 147.427573 30.013538 
L 149.614962 30.739807 
L 151.802352 31.737476 
L 153.989742 32.99927 
L 156.177131 34.516541 
L 158.364521 36.273096 
L 160.55191 38.242221 
L 164.926689 42.661567 
L 175.863637 54.37901 
L 180.238416 58.652346 
L 184.613196 62.625141 
L 199.924923 76.127852 
L 206.487091 82.335353 
L 213.04926 88.881037 
L 217.424039 93.517554 
L 223.986208 100.903305 
L 230.548377 108.27915 
L 232.735766 110.548985 
L 234.923156 112.655603 
L 237.110545 114.571418 
L 239.297935 116.284655 
L 241.485325 117.801792 
L 243.672714 119.147581 
L 248.047493 121.498448 
L 252.422273 123.75772 
L 256.797052 126.318469 
L 261.171831 129.366916 
L 265.54661 132.805355 
L 269.921389 136.307661 
L 274.296168 139.47279 
L 276.483558 140.82733 
L 278.670947 142.000891 
L 280.858337 142.991417 
L 283.045727 143.812247 
L 287.420506 145.059207 
L 298.357454 147.578625 
L 302.732233 148.848427 
L 324.606129 155.771201 
L 348.667414 162.882149 
L 370.54131 169.244225 
L 377.103478 170.925777 
L 381.478257 171.877831 
L 385.853037 172.668931 
L 392.415205 173.569757 
L 401.164764 174.420214 
L 409.914322 175.27699 
L 416.476491 176.154669 
L 433.975607 178.828482 
L 440.537776 179.466104 
L 447.099945 179.856535 
L 460.224282 180.311466 
L 484.285568 180.996827 
L 501.784684 181.190275 
L 517.096411 181.220609 
L 517.096411 181.220609 
" clip-path="url(#p35d3cc90b3)" style="fill: none; stroke: #2ca02c; stroke-width: 1.5; stroke-linecap: square"/>
   </g>
   <g id="patch_3">
    <path d="M 46.336959 181.222281 
L 46.336959 3.00024 
" style="fill: none; stroke: #000000; stroke-width: 0.8; stroke-linejoin: miter; stroke-linecap: square"/>
   </g>
   <g id="patch_4">
    <path d="M 538.860937 181.222281 
L 538.860937 3.00024 
" style="fill: none; stroke: #000000; stroke-width: 0.8; stroke-linejoin: miter; stroke-linecap: square"/>
   </g>
   <g id="patch_5">
    <path d="M 46.336959 181.222281 
L 538.860937 181.222281 
" style="fill: none; stroke: #000000; stroke-width: 0.8; stroke-linejoin: miter; stroke-linecap: square"/>
   </g>
   <g id="patch_6">
    <path d="M 46.336959 3.00024 
L 538.860937 3.00024 
" style="fill: none; stroke: #000000; stroke-width: 0.8; stroke-linejoin: miter; stroke-linecap: square"/>
   </g>
  </g>
  <g id="axes_2">
   <g id="patch_7">
    <path d="M 652.30625 181.222281 
L 1144.830229 181.222281 
L 1144.830229 3.00024 
L 652.30625 3.00024 
L 652.30625 181.222281 
z
" style="fill: none"/>
   </g>
   <g id="matplotlib.axis_3">
    <g id="xtick_6">
     <g id="line2d_12">
      <g>
       <use xlink:href="#m498bc1bd98" x="656.295235" y="181.222281" style="stroke: #000000; stroke-width: 0.8"/>
      </g>
     </g>
     <g id="text_12">
      <!-- 0 -->
      <g transform="translate(652.125704 199.561343)scale(0.15 -0.15)">
       <use xlink:href="#Avenir-Book-30"/>
      </g>
     </g>
    </g>
    <g id="xtick_7">
     <g id="line2d_13">
      <g>
       <use xlink:href="#m498bc1bd98" x="756.019868" y="181.222281" style="stroke: #000000; stroke-width: 0.8"/>
      </g>
     </g>
     <g id="text_13">
      <!-- 50 -->
      <g transform="translate(747.680805 199.561343)scale(0.15 -0.15)">
       <use xlink:href="#Avenir-Book-35"/>
       <use xlink:href="#Avenir-Book-30" x="55.599991"/>
      </g>
     </g>
    </g>
    <g id="xtick_8">
     <g id="line2d_14">
      <g>
       <use xlink:href="#m498bc1bd98" x="855.744501" y="181.222281" style="stroke: #000000; stroke-width: 0.8"/>
      </g>
     </g>
     <g id="text_14">
      <!-- 100 -->
      <g transform="translate(843.235907 199.561343)scale(0.15 -0.15)">
       <use xlink:href="#Avenir-Book-31"/>
       <use xlink:href="#Avenir-Book-30" x="55.599991"/>
       <use xlink:href="#Avenir-Book-30" x="111.199982"/>
      </g>
     </g>
    </g>
    <g id="xtick_9">
     <g id="line2d_15">
      <g>
       <use xlink:href="#m498bc1bd98" x="955.469133" y="181.222281" style="stroke: #000000; stroke-width: 0.8"/>
      </g>
     </g>
     <g id="text_15">
      <!-- 150 -->
      <g transform="translate(942.96054 199.561343)scale(0.15 -0.15)">
       <use xlink:href="#Avenir-Book-31"/>
       <use xlink:href="#Avenir-Book-35" x="55.599991"/>
       <use xlink:href="#Avenir-Book-30" x="111.199982"/>
      </g>
     </g>
    </g>
    <g id="xtick_10">
     <g id="line2d_16">
      <g>
       <use xlink:href="#m498bc1bd98" x="1055.193766" y="181.222281" style="stroke: #000000; stroke-width: 0.8"/>
      </g>
     </g>
     <g id="text_16">
      <!-- 200 -->
      <g transform="translate(1042.685172 199.561343)scale(0.15 -0.15)">
       <defs>
        <path id="Avenir-Book-32" d="M 3187 0 
L 307 0 
L 307 531 
L 2112 2368 
Q 2214 2470 2316 2585 
Q 2419 2701 2502 2829 
Q 2586 2957 2637 3097 
Q 2688 3238 2688 3392 
Q 2688 3578 2621 3725 
Q 2554 3872 2432 3974 
Q 2310 4077 2150 4131 
Q 1990 4186 1811 4186 
Q 1466 4186 1222 3994 
Q 979 3802 909 3475 
L 422 3526 
Q 518 4032 886 4320 
Q 1254 4608 1779 4608 
Q 2054 4608 2300 4534 
Q 2547 4461 2736 4313 
Q 2925 4166 3037 3945 
Q 3149 3725 3149 3430 
Q 3149 3168 3069 2950 
Q 2989 2733 2861 2541 
Q 2733 2349 2569 2176 
Q 2406 2003 2234 1837 
L 806 422 
L 3187 422 
L 3187 0 
z
" transform="scale(0.015625)"/>
       </defs>
       <use xlink:href="#Avenir-Book-32"/>
       <use xlink:href="#Avenir-Book-30" x="55.599991"/>
       <use xlink:href="#Avenir-Book-30" x="111.199982"/>
      </g>
     </g>
    </g>
    <g id="text_17">
     <!-- SVM-MOCCA score -->
     <g transform="translate(832.138161 219.219937)scale(0.15 -0.15)">
      <defs>
       <path id="Avenir-Book-53" d="M 2758 3782 
Q 2458 4224 1882 4224 
Q 1702 4224 1529 4176 
Q 1357 4128 1219 4029 
Q 1082 3930 998 3773 
Q 915 3616 915 3405 
Q 915 3098 1088 2928 
Q 1261 2758 1517 2649 
Q 1773 2541 2077 2454 
Q 2381 2368 2637 2224 
Q 2893 2080 3065 1843 
Q 3238 1606 3238 1197 
Q 3238 890 3107 643 
Q 2976 397 2761 230 
Q 2547 64 2281 -25 
Q 2016 -115 1747 -115 
Q 1331 -115 956 41 
Q 582 198 320 557 
L 736 858 
Q 883 608 1145 457 
Q 1408 307 1766 307 
Q 1939 307 2112 361 
Q 2285 416 2422 521 
Q 2560 627 2649 780 
Q 2739 934 2739 1133 
Q 2739 1370 2640 1526 
Q 2541 1683 2377 1788 
Q 2214 1894 2006 1964 
Q 1798 2035 1577 2105 
Q 1357 2176 1149 2265 
Q 941 2355 777 2492 
Q 614 2630 515 2838 
Q 416 3046 416 3360 
Q 416 3686 541 3929 
Q 666 4173 874 4333 
Q 1082 4493 1344 4569 
Q 1606 4646 1882 4646 
Q 2266 4646 2579 4524 
Q 2893 4403 3162 4096 
L 2758 3782 
z
" transform="scale(0.015625)"/>
       <path id="Avenir-Book-56" d="M 1933 691 
L 1946 691 
L 3430 4531 
L 3930 4531 
L 2163 0 
L 1702 0 
L -19 4531 
L 493 4531 
L 1933 691 
z
" transform="scale(0.015625)"/>
       <path id="Avenir-Book-4d" d="M 2848 845 
L 4378 4531 
L 5082 4531 
L 5082 0 
L 4621 0 
L 4621 3917 
L 4608 3917 
L 2970 0 
L 2726 0 
L 1088 3917 
L 1075 3917 
L 1075 0 
L 614 0 
L 614 4531 
L 1318 4531 
L 2848 845 
z
" transform="scale(0.015625)"/>
       <path id="Avenir-Book-2d" d="M 1888 1325 
L 243 1325 
L 243 1747 
L 1888 1747 
L 1888 1325 
z
" transform="scale(0.015625)"/>
       <path id="Avenir-Book-4f" d="M 4531 2266 
Q 4531 2656 4403 3011 
Q 4275 3366 4035 3635 
Q 3795 3904 3449 4064 
Q 3104 4224 2669 4224 
Q 2234 4224 1888 4064 
Q 1542 3904 1302 3635 
Q 1062 3366 934 3011 
Q 806 2656 806 2266 
Q 806 1875 934 1520 
Q 1062 1165 1302 896 
Q 1542 627 1888 467 
Q 2234 307 2669 307 
Q 3104 307 3449 467 
Q 3795 627 4035 896 
Q 4275 1165 4403 1520 
Q 4531 1875 4531 2266 
z
M 5030 2266 
Q 5030 1747 4851 1312 
Q 4672 877 4355 560 
Q 4038 243 3606 64 
Q 3174 -115 2669 -115 
Q 2163 -115 1731 64 
Q 1299 243 982 560 
Q 666 877 486 1312 
Q 307 1747 307 2266 
Q 307 2784 486 3219 
Q 666 3654 982 3971 
Q 1299 4288 1731 4467 
Q 2163 4646 2669 4646 
Q 3174 4646 3606 4467 
Q 4038 4288 4355 3971 
Q 4672 3654 4851 3219 
Q 5030 2784 5030 2266 
z
" transform="scale(0.015625)"/>
       <path id="Avenir-Book-43" d="M 4346 717 
Q 4230 544 4060 390 
Q 3891 237 3673 125 
Q 3456 13 3203 -51 
Q 2950 -115 2669 -115 
Q 2163 -115 1731 64 
Q 1299 243 982 560 
Q 666 877 486 1312 
Q 307 1747 307 2266 
Q 307 2784 486 3219 
Q 666 3654 982 3971 
Q 1299 4288 1731 4467 
Q 2163 4646 2669 4646 
Q 3091 4646 3513 4480 
Q 3936 4314 4237 3930 
L 3834 3629 
Q 3763 3738 3641 3846 
Q 3520 3955 3363 4038 
Q 3206 4122 3027 4173 
Q 2848 4224 2669 4224 
Q 2234 4224 1888 4064 
Q 1542 3904 1302 3635 
Q 1062 3366 934 3011 
Q 806 2656 806 2266 
Q 806 1875 934 1520 
Q 1062 1165 1302 896 
Q 1542 627 1888 467 
Q 2234 307 2669 307 
Q 2848 307 3024 339 
Q 3200 371 3369 448 
Q 3539 525 3689 656 
Q 3840 787 3968 986 
L 4346 717 
z
" transform="scale(0.015625)"/>
       <path id="Avenir-Book-41" d="M 1210 1613 
L 3174 1613 
L 2195 3994 
L 1210 1613 
z
M 538 0 
L 0 0 
L 1971 4531 
L 2419 4531 
L 4390 0 
L 3853 0 
L 3354 1190 
L 1037 1190 
L 538 0 
z
" transform="scale(0.015625)"/>
      </defs>
      <use xlink:href="#Avenir-Book-53"/>
      <use xlink:href="#Avenir-Book-56" x="55.599991"/>
      <use xlink:href="#Avenir-Book-4d" x="116.699982"/>
      <use xlink:href="#Avenir-Book-2d" x="205.699966"/>
      <use xlink:href="#Avenir-Book-4d" x="238.999954"/>
      <use xlink:href="#Avenir-Book-4f" x="327.999939"/>
      <use xlink:href="#Avenir-Book-43" x="411.399933"/>
      <use xlink:href="#Avenir-Book-43" x="481.799927"/>
      <use xlink:href="#Avenir-Book-41" x="552.199921"/>
      <use xlink:href="#Avenir-Book-20" x="620.799911"/>
      <use xlink:href="#Avenir-Book-73" x="648.599899"/>
      <use xlink:href="#Avenir-Book-63" x="691.19989"/>
      <use xlink:href="#Avenir-Book-6f" x="739.399887"/>
      <use xlink:href="#Avenir-Book-72" x="798.699875"/>
      <use xlink:href="#Avenir-Book-65" x="830.149872"/>
     </g>
    </g>
   </g>
   <g id="matplotlib.axis_4">
    <g id="ytick_5">
     <g id="line2d_17">
      <g>
       <use xlink:href="#m9c17b4dc68" x="652.30625" y="181.222281" style="stroke: #000000; stroke-width: 0.8"/>
      </g>
     </g>
     <g id="text_18">
      <!-- 0.00 -->
      <g transform="translate(616.119531 186.891812)scale(0.15 -0.15)">
       <use xlink:href="#Avenir-Book-30"/>
       <use xlink:href="#Avenir-Book-2e" x="55.599991"/>
       <use xlink:href="#Avenir-Book-30" x="83.399979"/>
       <use xlink:href="#Avenir-Book-30" x="138.999969"/>
      </g>
     </g>
    </g>
    <g id="ytick_6">
     <g id="line2d_18">
      <g>
       <use xlink:href="#m9c17b4dc68" x="652.30625" y="135.916869" style="stroke: #000000; stroke-width: 0.8"/>
      </g>
     </g>
     <g id="text_19">
      <!-- 0.01 -->
      <g transform="translate(616.119531 141.5864)scale(0.15 -0.15)">
       <use xlink:href="#Avenir-Book-30"/>
       <use xlink:href="#Avenir-Book-2e" x="55.599991"/>
       <use xlink:href="#Avenir-Book-30" x="83.399979"/>
       <use xlink:href="#Avenir-Book-31" x="138.999969"/>
      </g>
     </g>
    </g>
    <g id="ytick_7">
     <g id="line2d_19">
      <g>
       <use xlink:href="#m9c17b4dc68" x="652.30625" y="90.611456" style="stroke: #000000; stroke-width: 0.8"/>
      </g>
     </g>
     <g id="text_20">
      <!-- 0.02 -->
      <g transform="translate(616.119531 96.280988)scale(0.15 -0.15)">
       <use xlink:href="#Avenir-Book-30"/>
       <use xlink:href="#Avenir-Book-2e" x="55.599991"/>
       <use xlink:href="#Avenir-Book-30" x="83.399979"/>
       <use xlink:href="#Avenir-Book-32" x="138.999969"/>
      </g>
     </g>
    </g>
    <g id="ytick_8">
     <g id="line2d_20">
      <g>
       <use xlink:href="#m9c17b4dc68" x="652.30625" y="45.306044" style="stroke: #000000; stroke-width: 0.8"/>
      </g>
     </g>
     <g id="text_21">
      <!-- 0.03 -->
      <g transform="translate(616.119531 50.975575)scale(0.15 -0.15)">
       <defs>
        <path id="Avenir-Book-33" d="M 1306 2586 
L 1542 2586 
Q 1741 2586 1923 2630 
Q 2106 2675 2240 2774 
Q 2374 2874 2454 3034 
Q 2534 3194 2534 3418 
Q 2534 3782 2313 3984 
Q 2093 4186 1696 4186 
Q 1408 4186 1190 4058 
Q 973 3930 832 3686 
L 429 3891 
Q 634 4256 950 4432 
Q 1267 4608 1683 4608 
Q 1952 4608 2189 4531 
Q 2426 4454 2605 4304 
Q 2784 4154 2889 3933 
Q 2995 3712 2995 3430 
Q 2995 3245 2934 3078 
Q 2874 2912 2768 2777 
Q 2662 2643 2521 2544 
Q 2381 2445 2227 2394 
L 2246 2381 
Q 2438 2342 2598 2236 
Q 2758 2131 2873 1977 
Q 2989 1824 3053 1632 
Q 3117 1440 3117 1229 
Q 3117 915 3001 672 
Q 2886 429 2688 262 
Q 2490 96 2227 9 
Q 1965 -77 1670 -77 
Q 1171 -77 800 140 
Q 429 358 243 838 
L 730 986 
Q 845 659 1072 502 
Q 1299 346 1709 346 
Q 1901 346 2073 410 
Q 2246 474 2377 592 
Q 2509 710 2582 876 
Q 2656 1043 2656 1242 
Q 2656 1498 2560 1674 
Q 2464 1850 2304 1958 
Q 2144 2067 1936 2115 
Q 1728 2163 1504 2163 
L 1306 2163 
L 1306 2586 
z
" transform="scale(0.015625)"/>
       </defs>
       <use xlink:href="#Avenir-Book-30"/>
       <use xlink:href="#Avenir-Book-2e" x="55.599991"/>
       <use xlink:href="#Avenir-Book-30" x="83.399979"/>
       <use xlink:href="#Avenir-Book-33" x="138.999969"/>
      </g>
     </g>
    </g>
    <g id="text_22">
     <!-- density -->
     <g transform="translate(607.8 116.132354)rotate(-90)scale(0.15 -0.15)">
      <use xlink:href="#Avenir-Book-64"/>
      <use xlink:href="#Avenir-Book-65" x="61.099991"/>
      <use xlink:href="#Avenir-Book-6e" x="116.699982"/>
      <use xlink:href="#Avenir-Book-73" x="172.299973"/>
      <use xlink:href="#Avenir-Book-69" x="214.899963"/>
      <use xlink:href="#Avenir-Book-74" x="238.899948"/>
      <use xlink:href="#Avenir-Book-79" x="272.099945"/>
     </g>
    </g>
   </g>
   <g id="line2d_21">
    <path d="M 672.933144 180.838697 
L 675.135133 180.230897 
L 677.337123 178.874728 
L 679.539113 176.123869 
L 681.741102 171.053898 
L 683.943092 162.569663 
L 686.145081 149.692229 
L 688.347071 131.992997 
L 690.54906 110.020522 
L 694.953039 61.032943 
L 697.155029 39.585967 
L 699.357018 23.553505 
L 701.559008 14.204098 
L 703.760997 11.486995 
L 705.962987 14.305208 
L 708.164976 21.041577 
L 710.366966 30.071457 
L 716.972934 59.77647 
L 719.174924 68.594399 
L 721.376913 76.469704 
L 723.578903 83.355929 
L 725.780892 89.290091 
L 727.982882 94.377693 
L 730.184871 98.774123 
L 732.386861 102.659979 
L 736.79084 109.588668 
L 747.800788 125.941247 
L 752.204767 131.908504 
L 756.608746 137.185115 
L 761.012725 141.799493 
L 763.214714 143.873942 
L 765.416704 145.794492 
L 767.618693 147.563585 
L 772.022672 150.682724 
L 776.426651 153.309996 
L 778.628641 154.440763 
L 780.83063 155.438761 
L 785.23461 157.058915 
L 794.042568 159.907287 
L 798.446547 161.658495 
L 807.254505 165.296944 
L 813.860473 167.692915 
L 822.668431 170.522346 
L 827.07241 171.813625 
L 831.476389 172.838563 
L 835.880368 173.547356 
L 840.284348 174.016289 
L 849.092306 174.717693 
L 853.496285 175.368034 
L 864.506232 177.496691 
L 868.910211 178.003963 
L 882.122148 178.97519 
L 897.536075 180.070356 
L 904.142044 180.281242 
L 915.151991 180.275173 
L 928.363928 180.205786 
L 965.79775 181.028695 
L 981.211677 181.058697 
L 1001.029583 181.085955 
L 1025.251467 181.221608 
L 1111.129059 181.221474 
L 1111.129059 181.221474 
" clip-path="url(#p0187952221)" style="fill: none; stroke: #ff7f0e; stroke-width: 1.5; stroke-linecap: square"/>
   </g>
   <g id="line2d_22">
    <path d="M 662.226843 181.12578 
L 666.846163 180.856602 
L 669.155822 180.554118 
L 671.465482 180.051272 
L 673.775142 179.252871 
L 676.084801 178.042171 
L 678.394461 176.288876 
L 680.704121 173.864272 
L 683.01378 170.662803 
L 685.32344 166.627043 
L 687.6331 161.770795 
L 689.942759 156.193908 
L 694.562079 143.69598 
L 699.181398 131.279773 
L 701.491058 125.799085 
L 703.800717 121.064278 
L 706.110377 117.158568 
L 708.420037 114.072506 
L 710.729696 111.721253 
L 713.039356 109.972852 
L 715.349016 108.680303 
L 717.658675 107.710457 
L 719.968335 106.964575 
L 722.277994 106.387885 
L 724.587654 105.968204 
L 726.897314 105.72582 
L 729.206973 105.698304 
L 731.516633 105.924341 
L 733.826293 106.43018 
L 736.135952 107.221133 
L 738.445612 108.279021 
L 740.755272 109.565063 
L 745.374591 112.606396 
L 756.922889 120.771949 
L 761.542209 123.783133 
L 766.161528 126.495377 
L 768.471188 127.692403 
L 770.780847 128.763412 
L 775.400167 130.531241 
L 780.019486 131.940002 
L 786.948465 134.017756 
L 791.567784 135.753421 
L 796.187104 137.879238 
L 800.806423 140.323048 
L 814.664381 148.00881 
L 821.59336 151.432915 
L 828.522339 154.597762 
L 833.141658 156.507063 
L 837.760977 158.137325 
L 842.380297 159.476033 
L 851.618935 162.002366 
L 856.238255 163.55462 
L 865.476893 166.816329 
L 870.096213 168.147092 
L 874.715532 169.237478 
L 893.192809 173.218356 
L 900.121788 174.809204 
L 904.741107 175.689499 
L 909.360427 176.348468 
L 913.979746 176.794442 
L 920.908725 177.176235 
L 941.695662 178.042921 
L 950.934301 178.614287 
L 969.411578 179.983051 
L 976.340557 180.198624 
L 994.817834 180.391051 
L 1006.366132 180.63412 
L 1024.84341 181.155735 
L 1038.701368 181.19762 
L 1089.51388 181.143002 
L 1121.849115 181.221406 
L 1121.849115 181.221406 
" clip-path="url(#p0187952221)" style="fill: none; stroke: #2ca02c; stroke-width: 1.5; stroke-linecap: square"/>
   </g>
   <g id="patch_8">
    <path d="M 652.30625 181.222281 
L 652.30625 3.00024 
" style="fill: none; stroke: #000000; stroke-width: 0.8; stroke-linejoin: miter; stroke-linecap: square"/>
   </g>
   <g id="patch_9">
    <path d="M 1144.830229 181.222281 
L 1144.830229 3.00024 
" style="fill: none; stroke: #000000; stroke-width: 0.8; stroke-linejoin: miter; stroke-linecap: square"/>
   </g>
   <g id="patch_10">
    <path d="M 652.30625 181.222281 
L 1144.830229 181.222281 
" style="fill: none; stroke: #000000; stroke-width: 0.8; stroke-linejoin: miter; stroke-linecap: square"/>
   </g>
   <g id="patch_11">
    <path d="M 652.30625 3.00024 
L 1144.830229 3.00024 
" style="fill: none; stroke: #000000; stroke-width: 0.8; stroke-linejoin: miter; stroke-linecap: square"/>
   </g>
  </g>
  <g id="axes_3">
   <g id="patch_12">
    <path d="M 46.336959 407.761989 
L 1144.830229 407.761989 
L 1144.830229 229.539948 
L 46.336959 229.539948 
L 46.336959 407.761989 
z
" style="fill: none"/>
   </g>
   <g id="matplotlib.axis_5">
    <g id="xtick_11">
     <g id="line2d_23">
      <g>
       <use xlink:href="#m498bc1bd98" x="46.336959" y="407.761989" style="stroke: #000000; stroke-width: 0.8"/>
      </g>
     </g>
     <g id="text_23">
      <!-- 0 -->
      <g transform="translate(42.167428 426.101052)scale(0.15 -0.15)">
       <use xlink:href="#Avenir-Book-30"/>
      </g>
     </g>
    </g>
    <g id="xtick_12">
     <g id="line2d_24">
      <g>
       <use xlink:href="#m498bc1bd98" x="229.41917" y="407.761989" style="stroke: #000000; stroke-width: 0.8"/>
      </g>
     </g>
     <g id="text_24">
      <!-- 1 -->
      <g transform="translate(225.249639 426.101052)scale(0.15 -0.15)">
       <use xlink:href="#Avenir-Book-31"/>
      </g>
     </g>
    </g>
    <g id="xtick_13">
     <g id="line2d_25">
      <g>
       <use xlink:href="#m498bc1bd98" x="412.501382" y="407.761989" style="stroke: #000000; stroke-width: 0.8"/>
      </g>
     </g>
     <g id="text_25">
      <!-- 2 -->
      <g transform="translate(408.331851 426.101052)scale(0.15 -0.15)">
       <use xlink:href="#Avenir-Book-32"/>
      </g>
     </g>
    </g>
    <g id="xtick_14">
     <g id="line2d_26">
      <g>
       <use xlink:href="#m498bc1bd98" x="595.583594" y="407.761989" style="stroke: #000000; stroke-width: 0.8"/>
      </g>
     </g>
     <g id="text_26">
      <!-- 3 -->
      <g transform="translate(591.414062 426.101052)scale(0.15 -0.15)">
       <use xlink:href="#Avenir-Book-33"/>
      </g>
     </g>
    </g>
    <g id="xtick_15">
     <g id="line2d_27">
      <g>
       <use xlink:href="#m498bc1bd98" x="778.665805" y="407.761989" style="stroke: #000000; stroke-width: 0.8"/>
      </g>
     </g>
     <g id="text_27">
      <!-- 4 -->
      <g transform="translate(774.496274 426.101052)scale(0.15 -0.15)">
       <defs>
        <path id="Avenir-Book-34" d="M 2202 4070 
L 2189 4070 
L 627 1498 
L 2202 1498 
L 2202 4070 
z
M 2662 1498 
L 3315 1498 
L 3315 1075 
L 2662 1075 
L 2662 0 
L 2202 0 
L 2202 1075 
L 243 1075 
L 243 1600 
L 2074 4531 
L 2662 4531 
L 2662 1498 
z
" transform="scale(0.015625)"/>
       </defs>
       <use xlink:href="#Avenir-Book-34"/>
      </g>
     </g>
    </g>
    <g id="xtick_16">
     <g id="line2d_28">
      <g>
       <use xlink:href="#m498bc1bd98" x="961.748017" y="407.761989" style="stroke: #000000; stroke-width: 0.8"/>
      </g>
     </g>
     <g id="text_28">
      <!-- 5 -->
      <g transform="translate(957.578486 426.101052)scale(0.15 -0.15)">
       <use xlink:href="#Avenir-Book-35"/>
      </g>
     </g>
    </g>
    <g id="xtick_17">
     <g id="line2d_29">
      <g>
       <use xlink:href="#m498bc1bd98" x="1144.830229" y="407.761989" style="stroke: #000000; stroke-width: 0.8"/>
      </g>
     </g>
     <g id="text_29">
      <!-- 6 -->
      <g transform="translate(1140.660697 426.101052)scale(0.15 -0.15)">
       <defs>
        <path id="Avenir-Book-36" d="M 768 1325 
Q 768 1107 841 928 
Q 915 749 1049 617 
Q 1184 486 1369 416 
Q 1555 346 1779 346 
Q 2003 346 2188 416 
Q 2374 486 2508 617 
Q 2643 749 2716 928 
Q 2790 1107 2790 1325 
Q 2790 1542 2716 1721 
Q 2643 1901 2508 2029 
Q 2374 2157 2188 2230 
Q 2003 2304 1779 2304 
Q 1555 2304 1369 2230 
Q 1184 2157 1049 2029 
Q 915 1901 841 1721 
Q 768 1542 768 1325 
z
M 1229 2586 
L 1242 2573 
Q 1350 2650 1532 2688 
Q 1715 2726 1869 2726 
Q 2163 2726 2416 2620 
Q 2669 2515 2854 2329 
Q 3040 2144 3145 1888 
Q 3251 1632 3251 1325 
Q 3251 1011 3142 755 
Q 3034 499 2835 313 
Q 2637 128 2368 25 
Q 2099 -77 1779 -77 
Q 1459 -77 1190 25 
Q 922 128 723 313 
Q 525 499 416 755 
Q 307 1011 307 1325 
Q 307 1702 419 1984 
Q 531 2266 698 2541 
L 1920 4531 
L 2464 4531 
L 1229 2586 
z
" transform="scale(0.015625)"/>
       </defs>
       <use xlink:href="#Avenir-Book-36"/>
      </g>
     </g>
    </g>
    <g id="text_30">
     <!-- size (log10 bp) -->
     <g transform="translate(546.823047 445.759646)scale(0.15 -0.15)">
      <defs>
       <path id="Avenir-Book-7a" d="M 2515 2688 
L 762 384 
L 2579 384 
L 2579 0 
L 147 0 
L 147 307 
L 1901 2611 
L 237 2611 
L 237 2995 
L 2515 2995 
L 2515 2688 
z
" transform="scale(0.015625)"/>
       <path id="Avenir-Book-28" d="M 1613 4493 
Q 1408 4166 1251 3859 
Q 1094 3552 985 3235 
Q 877 2918 822 2579 
Q 768 2240 768 1843 
Q 768 1446 822 1113 
Q 877 781 979 473 
Q 1082 166 1235 -134 
Q 1389 -435 1587 -768 
L 1248 -1024 
Q 819 -422 582 320 
Q 346 1062 346 1843 
Q 346 2586 579 3334 
Q 813 4083 1274 4710 
L 1613 4493 
z
" transform="scale(0.015625)"/>
       <path id="Avenir-Book-6c" d="M 979 0 
L 557 0 
L 557 4838 
L 979 4838 
L 979 0 
z
" transform="scale(0.015625)"/>
       <path id="Avenir-Book-67" d="M 768 1536 
Q 768 1299 854 1091 
Q 941 883 1091 726 
Q 1242 570 1443 477 
Q 1645 384 1882 384 
Q 2112 384 2320 467 
Q 2528 550 2688 700 
Q 2848 851 2934 1062 
Q 3021 1274 3014 1536 
Q 3014 1773 2937 1981 
Q 2861 2189 2713 2345 
Q 2566 2502 2355 2595 
Q 2144 2688 1882 2688 
Q 1645 2688 1443 2595 
Q 1242 2502 1091 2345 
Q 941 2189 854 1981 
Q 768 1773 768 1536 
z
M 691 -602 
Q 877 -851 1174 -1001 
Q 1472 -1152 1837 -1152 
Q 2157 -1152 2381 -1059 
Q 2605 -966 2742 -806 
Q 2880 -646 2941 -432 
Q 3002 -218 3002 26 
L 3002 563 
L 2989 563 
Q 2784 256 2489 128 
Q 2195 0 1869 0 
Q 1542 0 1257 115 
Q 973 230 761 432 
Q 550 634 428 915 
Q 307 1197 307 1523 
Q 307 1850 422 2131 
Q 538 2413 739 2624 
Q 941 2835 1219 2953 
Q 1498 3072 1830 3072 
Q 1965 3072 2115 3046 
Q 2266 3021 2416 2957 
Q 2566 2893 2713 2781 
Q 2861 2669 2989 2496 
L 3002 2496 
L 3002 2995 
L 3424 2995 
L 3424 26 
Q 3424 -218 3363 -493 
Q 3302 -768 3126 -998 
Q 2950 -1229 2636 -1382 
Q 2323 -1536 1818 -1536 
Q 1370 -1536 1018 -1389 
Q 666 -1242 378 -934 
L 691 -602 
z
" transform="scale(0.015625)"/>
       <path id="Avenir-Book-62" d="M 3194 1498 
Q 3194 1747 3114 1964 
Q 3034 2182 2886 2342 
Q 2739 2502 2531 2595 
Q 2323 2688 2061 2688 
Q 1798 2688 1580 2595 
Q 1363 2502 1203 2342 
Q 1043 2182 953 1964 
Q 864 1747 864 1498 
Q 864 1248 953 1030 
Q 1043 813 1203 653 
Q 1363 493 1580 400 
Q 1798 307 2061 307 
Q 2323 307 2531 400 
Q 2739 493 2886 653 
Q 3034 813 3114 1030 
Q 3194 1248 3194 1498 
z
M 461 4838 
L 883 4838 
L 883 2496 
L 896 2496 
Q 998 2650 1139 2758 
Q 1280 2867 1433 2937 
Q 1587 3008 1750 3040 
Q 1914 3072 2061 3072 
Q 2413 3072 2704 2953 
Q 2995 2835 3206 2624 
Q 3418 2413 3536 2125 
Q 3654 1837 3654 1498 
Q 3654 1158 3536 870 
Q 3418 582 3206 371 
Q 2995 160 2704 41 
Q 2413 -77 2061 -77 
Q 1914 -77 1750 -45 
Q 1587 -13 1433 57 
Q 1280 128 1139 237 
Q 998 346 896 499 
L 883 499 
L 883 0 
L 461 0 
L 461 4838 
z
" transform="scale(0.015625)"/>
       <path id="Avenir-Book-70" d="M 3194 1498 
Q 3194 1747 3114 1964 
Q 3034 2182 2886 2342 
Q 2739 2502 2531 2595 
Q 2323 2688 2061 2688 
Q 1798 2688 1580 2595 
Q 1363 2502 1203 2342 
Q 1043 2182 953 1964 
Q 864 1747 864 1498 
Q 864 1248 953 1030 
Q 1043 813 1203 653 
Q 1363 493 1580 400 
Q 1798 307 2061 307 
Q 2323 307 2531 400 
Q 2739 493 2886 653 
Q 3034 813 3114 1030 
Q 3194 1248 3194 1498 
z
M 461 2995 
L 883 2995 
L 883 2496 
L 896 2496 
Q 998 2650 1139 2758 
Q 1280 2867 1433 2937 
Q 1587 3008 1750 3040 
Q 1914 3072 2061 3072 
Q 2413 3072 2704 2953 
Q 2995 2835 3206 2624 
Q 3418 2413 3536 2125 
Q 3654 1837 3654 1498 
Q 3654 1158 3536 870 
Q 3418 582 3206 371 
Q 2995 160 2704 41 
Q 2413 -77 2061 -77 
Q 1914 -77 1750 -45 
Q 1587 -13 1433 57 
Q 1280 128 1139 237 
Q 998 346 896 499 
L 883 499 
L 883 -1843 
L 461 -1843 
L 461 2995 
z
" transform="scale(0.015625)"/>
       <path id="Avenir-Book-29" d="M 51 -806 
Q 256 -480 413 -173 
Q 570 134 678 451 
Q 787 768 841 1107 
Q 896 1446 896 1843 
Q 896 2240 841 2573 
Q 787 2906 684 3213 
Q 582 3520 428 3821 
Q 275 4122 77 4454 
L 416 4710 
Q 845 4109 1081 3366 
Q 1318 2624 1318 1843 
Q 1318 1101 1084 352 
Q 851 -397 390 -1024 
L 51 -806 
z
" transform="scale(0.015625)"/>
      </defs>
      <use xlink:href="#Avenir-Book-73"/>
      <use xlink:href="#Avenir-Book-69" x="42.599991"/>
      <use xlink:href="#Avenir-Book-7a" x="66.599976"/>
      <use xlink:href="#Avenir-Book-65" x="109.199966"/>
      <use xlink:href="#Avenir-Book-20" x="164.799957"/>
      <use xlink:href="#Avenir-Book-28" x="192.599945"/>
      <use xlink:href="#Avenir-Book-6c" x="218.59993"/>
      <use xlink:href="#Avenir-Book-6f" x="242.599915"/>
      <use xlink:href="#Avenir-Book-67" x="301.899902"/>
      <use xlink:href="#Avenir-Book-31" x="362.999893"/>
      <use xlink:href="#Avenir-Book-30" x="418.599884"/>
      <use xlink:href="#Avenir-Book-20" x="474.199875"/>
      <use xlink:href="#Avenir-Book-62" x="501.999863"/>
      <use xlink:href="#Avenir-Book-70" x="563.099854"/>
      <use xlink:href="#Avenir-Book-29" x="624.199844"/>
     </g>
    </g>
   </g>
   <g id="matplotlib.axis_6">
    <g id="ytick_9">
     <g id="line2d_30">
      <g>
       <use xlink:href="#m9c17b4dc68" x="46.336959" y="407.761989" style="stroke: #000000; stroke-width: 0.8"/>
      </g>
     </g>
     <g id="text_31">
      <!-- 0 -->
      <g transform="translate(30.997896 413.431521)scale(0.15 -0.15)">
       <use xlink:href="#Avenir-Book-30"/>
      </g>
     </g>
    </g>
    <g id="ytick_10">
     <g id="line2d_31">
      <g>
       <use xlink:href="#m9c17b4dc68" x="46.336959" y="368.600991" style="stroke: #000000; stroke-width: 0.8"/>
      </g>
     </g>
     <g id="text_32">
      <!-- 1 -->
      <g transform="translate(30.997896 374.270522)scale(0.15 -0.15)">
       <use xlink:href="#Avenir-Book-31"/>
      </g>
     </g>
    </g>
    <g id="ytick_11">
     <g id="line2d_32">
      <g>
       <use xlink:href="#m9c17b4dc68" x="46.336959" y="329.439993" style="stroke: #000000; stroke-width: 0.8"/>
      </g>
     </g>
     <g id="text_33">
      <!-- 2 -->
      <g transform="translate(30.997896 335.109524)scale(0.15 -0.15)">
       <use xlink:href="#Avenir-Book-32"/>
      </g>
     </g>
    </g>
    <g id="ytick_12">
     <g id="line2d_33">
      <g>
       <use xlink:href="#m9c17b4dc68" x="46.336959" y="290.278995" style="stroke: #000000; stroke-width: 0.8"/>
      </g>
     </g>
     <g id="text_34">
      <!-- 3 -->
      <g transform="translate(30.997896 295.948526)scale(0.15 -0.15)">
       <use xlink:href="#Avenir-Book-33"/>
      </g>
     </g>
    </g>
    <g id="ytick_13">
     <g id="line2d_34">
      <g>
       <use xlink:href="#m9c17b4dc68" x="46.336959" y="251.117996" style="stroke: #000000; stroke-width: 0.8"/>
      </g>
     </g>
     <g id="text_35">
      <!-- 4 -->
      <g transform="translate(30.997896 256.787527)scale(0.15 -0.15)">
       <use xlink:href="#Avenir-Book-34"/>
      </g>
     </g>
    </g>
    <g id="text_36">
     <!-- density -->
     <g transform="translate(22.678365 342.672063)rotate(-90)scale(0.15 -0.15)">
      <use xlink:href="#Avenir-Book-64"/>
      <use xlink:href="#Avenir-Book-65" x="61.099991"/>
      <use xlink:href="#Avenir-Book-6e" x="116.699982"/>
      <use xlink:href="#Avenir-Book-73" x="172.299973"/>
      <use xlink:href="#Avenir-Book-69" x="214.899963"/>
      <use xlink:href="#Avenir-Book-74" x="238.899948"/>
      <use xlink:href="#Avenir-Book-79" x="272.099945"/>
     </g>
    </g>
   </g>
   <g id="line2d_35">
    <path d="M 484.874147 407.623092 
L 486.703352 407.36534 
L 488.532556 406.776333 
L 490.36176 405.630564 
L 492.190965 403.750655 
L 494.020169 401.189854 
L 495.849374 398.381215 
L 497.678578 396.075492 
L 499.507782 394.99632 
L 501.336987 395.396952 
L 503.166191 396.865085 
L 504.995396 398.571728 
L 506.8246 399.797105 
L 508.653804 400.337282 
L 510.483009 400.51073 
L 512.312213 400.815917 
L 514.141418 401.54078 
L 517.799826 403.70054 
L 519.629031 404.51006 
L 521.458235 404.861917 
L 523.28744 404.679303 
L 525.116644 403.846847 
L 526.945848 402.076075 
L 528.775053 398.797765 
L 530.604257 393.112006 
L 532.433462 383.934421 
L 534.262666 370.459804 
L 536.09187 352.731085 
L 537.921075 331.772551 
L 543.408688 264.407609 
L 545.237892 247.098123 
L 547.067097 238.026712 
L 548.896301 240.060334 
L 550.725506 252.675048 
L 554.383914 291.631785 
L 556.213119 308.190235 
L 558.042323 319.698016 
L 559.871528 326.514286 
L 561.700732 329.923869 
L 563.529936 331.280785 
L 565.359141 331.643871 
L 567.188345 331.7213 
L 569.01755 331.916528 
L 570.846754 332.394842 
L 572.675958 333.171324 
L 574.505163 334.204892 
L 576.334367 335.453829 
L 579.992776 338.400524 
L 583.651185 341.337365 
L 585.480389 342.570806 
L 589.138798 344.703669 
L 590.968002 345.969234 
L 592.797207 347.712212 
L 594.626411 350.134347 
L 596.455615 353.264702 
L 601.943229 364.252066 
L 603.772433 367.282343 
L 605.601637 369.746618 
L 612.918455 377.978958 
L 616.576864 382.494957 
L 618.406068 384.543 
L 622.064477 388.087088 
L 625.722886 391.109182 
L 629.381295 393.604281 
L 634.868908 396.96416 
L 640.356521 400.679928 
L 642.185725 401.705621 
L 644.01493 402.492781 
L 645.844134 403.055628 
L 653.160952 404.605268 
L 658.648565 405.679857 
L 667.794587 407.003306 
L 671.452996 407.324594 
L 676.940609 407.491275 
L 695.232653 407.750192 
L 726.329128 407.759549 
L 779.376055 407.761989 
L 848.885822 407.76107 
L 848.885822 407.76107 
" clip-path="url(#pe2fd36e0e7)" style="fill: none; stroke: #1f77b4; stroke-width: 1.5; stroke-linecap: square"/>
   </g>
   <g id="line2d_36">
    <path d="M 661.369793 407.411271 
L 662.973369 407.072735 
L 664.576945 406.47106 
L 666.180522 405.457424 
L 667.784098 403.839968 
L 669.387674 401.397739 
L 670.99125 397.912891 
L 672.594826 393.221782 
L 674.198403 387.278441 
L 675.801979 380.215548 
L 680.612708 356.789086 
L 682.216284 350.482441 
L 683.81986 346.060305 
L 685.423436 343.933611 
L 687.027012 344.19724 
L 688.630589 346.616433 
L 690.234165 350.686371 
L 695.044893 366.177774 
L 696.64847 370.53134 
L 698.252046 373.934343 
L 699.855622 376.327987 
L 701.459198 377.782622 
L 703.062774 378.443322 
L 704.666351 378.48073 
L 706.269927 378.054735 
L 707.873503 377.292334 
L 709.477079 376.276851 
L 711.080655 375.044024 
L 712.684232 373.580742 
L 714.287808 371.82368 
L 715.891384 369.657361 
L 717.49496 366.913782 
L 719.098537 363.378416 
L 720.702113 358.809157 
L 722.305689 352.974438 
L 723.909265 345.712909 
L 725.512841 337.009414 
L 727.116418 327.071828 
L 730.32357 305.710074 
L 731.927146 296.023014 
L 733.530722 288.368609 
L 735.134299 283.675993 
L 736.737875 282.567289 
L 738.341451 285.217418 
L 739.945027 291.307519 
L 741.548603 300.087783 
L 747.962908 341.526754 
L 749.566485 349.348859 
L 751.170061 355.448456 
L 752.773637 359.924131 
L 754.377213 363.018708 
L 755.980789 365.038545 
L 757.584366 366.292883 
L 759.187942 367.056905 
L 762.395094 367.952884 
L 765.602247 368.856186 
L 768.809399 370.123912 
L 781.638009 375.98447 
L 784.845161 377.849632 
L 788.052314 380.066967 
L 792.863042 383.566964 
L 796.070195 385.608006 
L 799.277347 387.230243 
L 802.484499 388.472379 
L 808.898804 390.471162 
L 815.313109 392.586579 
L 834.556024 399.188879 
L 837.763176 400.055248 
L 840.970328 400.701872 
L 852.195362 402.565984 
L 863.420395 405.084539 
L 866.627548 405.459866 
L 871.438276 405.723293 
L 882.66331 406.179901 
L 893.888343 406.760917 
L 909.924105 407.194552 
L 932.374172 407.653445 
L 943.599206 407.675839 
L 959.634968 407.648066 
L 980.481459 407.761319 
L 980.481459 407.761319 
" clip-path="url(#pe2fd36e0e7)" style="fill: none; stroke: #ff7f0e; stroke-width: 1.5; stroke-linecap: square"/>
   </g>
   <g id="line2d_37">
    <path d="M 133.381435 407.760058 
L 150.483619 407.632909 
L 161.885075 407.577062 
L 187.538351 407.721805 
L 207.490899 407.760362 
L 227.443447 407.637283 
L 238.844903 407.628047 
L 253.096723 407.623907 
L 264.498179 407.631771 
L 278.749999 407.728187 
L 310.104003 407.633989 
L 335.757279 407.66134 
L 358.560191 407.519506 
L 367.111283 407.564217 
L 372.812011 407.436278 
L 387.063831 406.883078 
L 404.166015 406.855856 
L 435.520019 405.516915 
L 446.921475 405.581555 
L 458.322931 405.169669 
L 464.023659 405.361193 
L 469.724387 405.598617 
L 472.574751 405.602095 
L 475.425115 405.491574 
L 478.275479 405.252356 
L 481.125843 404.851513 
L 483.976207 404.22075 
L 486.826571 403.27854 
L 489.676935 402.003009 
L 495.377663 399.105026 
L 498.228027 398.103691 
L 501.078391 397.718263 
L 503.928755 397.898512 
L 509.629483 398.843424 
L 512.479847 399.065285 
L 515.330211 398.928135 
L 518.180575 398.329955 
L 521.030939 397.051054 
L 523.881303 394.647023 
L 526.731667 390.414251 
L 529.582031 383.489739 
L 532.432395 373.139362 
L 535.282759 359.207032 
L 540.983487 325.288778 
L 543.833851 310.303244 
L 546.684215 300.413128 
L 549.534579 297.110269 
L 552.384943 299.851837 
L 555.235307 306.359634 
L 558.085671 313.786282 
L 560.936035 319.973739 
L 563.786399 324.071662 
L 566.636763 326.366591 
L 569.487127 327.689857 
L 572.337491 328.857315 
L 575.187855 330.374704 
L 578.038219 332.408174 
L 580.888583 334.90869 
L 583.738947 337.771265 
L 586.589311 340.945542 
L 589.439675 344.457465 
L 592.290039 348.345509 
L 603.691495 365.074108 
L 606.541859 368.617727 
L 612.242587 375.090922 
L 617.943315 381.34209 
L 620.793679 384.290961 
L 623.644043 387.018094 
L 626.494407 389.49492 
L 629.344771 391.739014 
L 632.195135 393.791532 
L 635.045499 395.685304 
L 637.895863 397.419614 
L 640.746227 398.960912 
L 643.596591 400.273544 
L 646.446955 401.357199 
L 652.147683 403.045271 
L 657.848411 404.459176 
L 663.549139 405.673509 
L 669.249867 406.577353 
L 674.950595 407.144047 
L 680.651323 407.467005 
L 689.202415 407.700353 
L 700.603871 407.760314 
L 700.603871 407.760314 
" clip-path="url(#pe2fd36e0e7)" style="fill: none; stroke: #2ca02c; stroke-width: 1.5; stroke-linecap: square"/>
   </g>
   <g id="patch_13">
    <path d="M 46.336959 407.761989 
L 46.336959 229.539948 
" style="fill: none; stroke: #000000; stroke-width: 0.8; stroke-linejoin: miter; stroke-linecap: square"/>
   </g>
   <g id="patch_14">
    <path d="M 1144.830229 407.761989 
L 1144.830229 229.539948 
" style="fill: none; stroke: #000000; stroke-width: 0.8; stroke-linejoin: miter; stroke-linecap: square"/>
   </g>
   <g id="patch_15">
    <path d="M 46.336959 407.761989 
L 1144.830229 407.761989 
" style="fill: none; stroke: #000000; stroke-width: 0.8; stroke-linejoin: miter; stroke-linecap: square"/>
   </g>
   <g id="patch_16">
    <path d="M 46.336959 229.539948 
L 1144.830229 229.539948 
" style="fill: none; stroke: #000000; stroke-width: 0.8; stroke-linejoin: miter; stroke-linecap: square"/>
   </g>
  </g>
  <g id="legend_1">
   <g id="patch_17">
    <path d="M 394.253906 496.5 
L 757.746094 496.5 
Q 760.746094 496.5 760.746094 493.5 
L 760.746094 471.841406 
Q 760.746094 468.841406 757.746094 468.841406 
L 394.253906 468.841406 
Q 391.253906 468.841406 391.253906 471.841406 
L 391.253906 493.5 
Q 391.253906 496.5 394.253906 496.5 
z
" style="fill: #ffffff; opacity: 0.8; stroke: #cccccc; stroke-linejoin: miter"/>
   </g>
   <g id="patch_18">
    <path d="M 397.253906 486.180469 
L 427.253906 486.180469 
L 427.253906 475.680469 
L 397.253906 475.680469 
z
" style="fill: #1f77b4"/>
   </g>
   <g id="text_37">
    <!-- KF19 -->
    <g transform="translate(439.253906 486.180469)scale(0.15 -0.15)">
     <use xlink:href="#Avenir-Book-4b"/>
     <use xlink:href="#Avenir-Book-46" x="62.999985"/>
     <use xlink:href="#Avenir-Book-31" x="118.599976"/>
     <use xlink:href="#Avenir-Book-39" x="174.199966"/>
    </g>
   </g>
   <g id="patch_19">
    <path d="M 503.721094 486.180469 
L 533.721094 486.180469 
L 533.721094 475.680469 
L 503.721094 475.680469 
z
" style="fill: #ff7f0e"/>
   </g>
   <g id="text_38">
    <!-- SVM-MOCCA -->
    <g transform="translate(545.721094 486.180469)scale(0.15 -0.15)">
     <use xlink:href="#Avenir-Book-53"/>
     <use xlink:href="#Avenir-Book-56" x="55.599991"/>
     <use xlink:href="#Avenir-Book-4d" x="116.699982"/>
     <use xlink:href="#Avenir-Book-2d" x="205.699966"/>
     <use xlink:href="#Avenir-Book-4d" x="238.999954"/>
     <use xlink:href="#Avenir-Book-4f" x="327.999939"/>
     <use xlink:href="#Avenir-Book-43" x="411.399933"/>
     <use xlink:href="#Avenir-Book-43" x="481.799927"/>
     <use xlink:href="#Avenir-Book-41" x="552.199921"/>
    </g>
   </g>
   <g id="patch_20">
    <path d="M 668.840625 486.180469 
L 698.840625 486.180469 
L 698.840625 475.680469 
L 668.840625 475.680469 
z
" style="fill: #2ca02c"/>
   </g>
   <g id="text_39">
    <!-- RPREP -->
    <g transform="translate(710.840625 486.180469)scale(0.15 -0.15)">
     <defs>
      <path id="Avenir-Book-52" d="M 1075 2528 
L 1894 2528 
Q 2202 2528 2416 2592 
Q 2630 2656 2758 2761 
Q 2886 2867 2944 3011 
Q 3002 3155 3002 3322 
Q 3002 3482 2944 3626 
Q 2886 3770 2758 3878 
Q 2630 3987 2416 4048 
Q 2202 4109 1894 4109 
L 1075 4109 
L 1075 2528 
z
M 1075 0 
L 614 0 
L 614 4531 
L 2010 4531 
Q 2701 4531 3101 4230 
Q 3501 3930 3501 3322 
Q 3501 2848 3203 2525 
Q 2906 2202 2342 2150 
L 3648 0 
L 3085 0 
L 1843 2106 
L 1075 2106 
L 1075 0 
z
" transform="scale(0.015625)"/>
      <path id="Avenir-Book-50" d="M 1075 2528 
L 1818 2528 
Q 2125 2528 2339 2592 
Q 2554 2656 2682 2761 
Q 2810 2867 2867 3011 
Q 2925 3155 2925 3322 
Q 2925 3482 2867 3626 
Q 2810 3770 2682 3878 
Q 2554 3987 2339 4048 
Q 2125 4109 1818 4109 
L 1075 4109 
L 1075 2528 
z
M 614 4531 
L 1933 4531 
Q 2624 4531 3024 4230 
Q 3424 3930 3424 3322 
Q 3424 2714 3024 2410 
Q 2624 2106 1933 2106 
L 1075 2106 
L 1075 0 
L 614 0 
L 614 4531 
z
" transform="scale(0.015625)"/>
      <path id="Avenir-Book-45" d="M 1075 422 
L 3501 422 
L 3501 0 
L 614 0 
L 614 4531 
L 3424 4531 
L 3424 4109 
L 1075 4109 
L 1075 2566 
L 3270 2566 
L 3270 2144 
L 1075 2144 
L 1075 422 
z
" transform="scale(0.015625)"/>
     </defs>
     <use xlink:href="#Avenir-Book-52"/>
     <use xlink:href="#Avenir-Book-50" x="59.299988"/>
     <use xlink:href="#Avenir-Book-52" x="116.699982"/>
     <use xlink:href="#Avenir-Book-45" x="175.999969"/>
     <use xlink:href="#Avenir-Book-50" x="235.299957"/>
    </g>
   </g>
  </g>
 </g>
 <defs>
  <clipPath id="p35d3cc90b3">
   <rect x="46.336959" y="3.00024" width="492.523979" height="178.222041"/>
  </clipPath>
  <clipPath id="p0187952221">
   <rect x="652.30625" y="3.00024" width="492.523979" height="178.222041"/>
  </clipPath>
  <clipPath id="pe2fd36e0e7">
   <rect x="46.336959" y="229.539948" width="1098.49327" height="178.222041"/>
  </clipPath>
 </defs>
</svg>
